<?xml version="1.0" encoding="utf-8"?>
<!-- Generator: Adobe Illustrator 21.0.0, SVG Export Plug-In . SVG Version: 6.00 Build 0)  -->
<svg version="1.1" xmlns="http://www.w3.org/2000/svg" xmlns:xlink="http://www.w3.org/1999/xlink" x="0px" y="0px"
	 viewBox="0 0 200 200" style="enable-background:new 0 0 200 200;" xml:space="preserve">
<style type="text/css">
	.st0{fill:#FDEAA2;stroke:#F8EE69;stroke-width:0.5751;stroke-miterlimit:10;}
	.st1{fill:#FAAF40;
		animation: base 5s infinite;}
	@keyframes base{
	from {top: 0px;}
	to {top: 200px;}
	}
	.st2{fill:#FDCE18;}
	.st3{fill:#FDCE18;stroke:#F8EE69;stroke-width:0.4008;}
	.st4{opacity:0.85;fill:#FDCE18;}
	.st5{fill:#FFCB04;}
	.st6{fill:#FFFFFF;}

	
</style>
<g id="bombillo">
	<path class="st0" d="M81.7,103.3c0-10.1,8.5-17.8,17.8-17.8s17.4,7.7,17.7,17.7c0.2,5.5-5.1,13.5-6.7,16.2
		c-1.3,2.1-1.8,5.8-2.1,6.9c0,0-0.2,4.7-10.1,4.7c-6.8,0-8.4-3.2-8.5-4.4c-0.2-2.6,0.1-3.1-1.8-7.2C86,115.2,81.7,110,81.7,103.3z"
		/>
</g>
<g id="base">
	<path class="st1" d="M107.2,128.5c-1.2,1.2-3.7,2.6-8.9,2.6c-3.9,0-6.1-1.1-7.3-2.2h-0.5c0,0,0,1,0.4,1.3s0.1,1.3,0.2,1.7
		c0.1,0.5,0,1.3,0,1.7c0,0.4,0,0.9,0.3,1.4c0.3,0.6-0.5,0.5-0.3,1c0.2,0.6,0.3,1,0.4,1.5c0.1,0.5,1.7,5.7,7.5,6.4
		c5.8-0.7,7.4-5.9,7.5-6.4c0.1-0.5,0.3-0.9,0.4-1.5s-0.6-0.5-0.3-1c0.3-0.6,0.3-1,0.3-1.4c0-0.4-0.1-1.2,0-1.7s-0.3-1.4,0.2-1.7
		c0.5-0.3,0.4-1.6,0.4-1.6L107.2,128.5z"/>
</g>
<g id="sombra">
	<path class="st2" d="M89.5,122.1c0.2,0.4,0.4,3,0.5,3.5c0.1,0.6,0.2,2.4,2.1,3.4c1.9,1,5.4,1.3,7.1,1.3c1.7,0,4.7-0.5,5.9-1.1
		c1.2-0.6,3-1.9,3.2-3.8c0.2-1.9,1.6-5.7,1.5-5.6c-2.4,0.8-13.6,1.7-15.1,1.6c-1.4-0.1-5.5-0.3-5.5-0.3S89.2,121.6,89.5,122.1z"/>
	<path class="st2" d="M89.4,121.4c0.4,0.5,8.9,1.2,9.9,0.8c0.9-0.4,3.4-1.1,4.3-0.8c0.9,0.3,4.6-0.3,5.4-0.9c1.5-1.1,0.8-1.6-0.4-1
		c-1.2,0.6-6.5,0.6-7.4,0.7c-0.9,0.1-8.8,0.4-9.5,0.4C91.1,120.7,88.7,120.7,89.4,121.4z"/>
</g>
<g id="reflejo">
	<path class="st3" d="M97.3,121.6c0.1-2.3,0.3-1.7,0.4-2.4c0.1-0.7-0.3-0.1-0.7-1.6c-0.4-1.5-3.2-12.6-3.2-12.6s6.4,1.2,7.2,1.5
		c0.8,0.3,2.7-0.1,3.8,0c1.1,0.1,0.2-0.6,0.2-0.6s-3.7,11.3-3.8,12.3c-0.1,1,0.1,1.5,0.1,1.5s0.3,0.4,0.3,1.2"/>
</g>
<g id="reflejo2">
	<path class="st4" d="M92.9,125.9c0.1-1.9-1.3-9-2.9-12.1c-1.6-3.1-5.5-12.8,1.9-17c7.4-4.2,18.3-0.5,18.7,6.8
		c0.4,7.3-3.2,6.4-4.8,14.5c-1.6,8.1-1.3,7.3-2.3,7.7c-0.9,0.4-2.6-0.5-3.6-0.3c-0.9,0.2-2.8,0.9-4,0.7
		C94.6,126,92.9,125.9,92.9,125.9z"/>
</g>
<g id="reflejo1">
	<path class="st5" d="M88.5,95.1c2.6,0.2,6.4,1.2,6.5,1.5c0.2,0.2,4.1-1.2,7.9-0.7c3.7,0.5,5.7,2.1,5.7,2.1s3.2,0,4.3,1
		c1.1,1-1.8-9.5-11.1-11.1C92.5,86.4,88.5,95.1,88.5,95.1z"/>
</g>
<g id="luz">
	<g>
		<rect x="97.2" y="54.5" class="st6" width="5.3" height="16.7"/>
		
			<rect x="129.6" y="68" transform="matrix(0.7071 0.7071 -0.7071 0.7071 92.7509 -71.1288)" class="st6" width="5.3" height="16.7"/>
		
			<rect x="142.9" y="100.5" transform="matrix(4.368754e-11 1 -1 4.368754e-11 254.424 -36.6488)" class="st6" width="5.3" height="16.7"/>
		
			<rect x="65.8" y="68" transform="matrix(-0.7071 0.7071 -0.7071 -0.7071 170.908 81.9992)" class="st6" width="5.3" height="16.7"/>
		
			<rect x="52.5" y="100.5" transform="matrix(-9.112906e-11 1 -1 -9.112906e-11 164.0582 53.7171)" class="st6" width="5.3" height="16.7"/>
	</g>
</g>
</svg>
